<svg width="48" height="48" viewBox="0 0 48 48" fill="none" xmlns="http://www.w3.org/2000/svg">
<path d="M0 10C0 4.47715 4.47715 0 10 0H38C43.5229 0 48 4.47715 48 10V38C48 43.5229 43.5228 48 38 48H10C4.47715 48 0 43.5228 0 38V10Z" fill="#DBEAFE"/>
<path d="M28 32V16C28 15.4696 27.7893 14.9609 27.4142 14.5858C27.0391 14.2107 26.5304 14 26 14H22C21.4696 14 20.9609 14.2107 20.5858 14.5858C20.2107 14.9609 20 15.4696 20 16V32" stroke="#155DFC" stroke-width="2" stroke-linecap="round" stroke-linejoin="round"/>
<path d="M32 18H16C14.8954 18 14 18.8954 14 20V30C14 31.1046 14.8954 32 16 32H32C33.1046 32 34 31.1046 34 30V20C34 18.8954 33.1046 18 32 18Z" stroke="#155DFC" stroke-width="2" stroke-linecap="round" stroke-linejoin="round"/>
</svg>
