<svg width="48" height="48" viewBox="0 0 48 48" fill="none" xmlns="http://www.w3.org/2000/svg">
<path d="M0 16C0 7.16344 7.16344 0 16 0H32C40.8366 0 48 7.16344 48 16V32C48 40.8366 40.8366 48 32 48H16C7.16344 48 0 40.8366 0 32V16Z" fill="#00C950"/>
<path d="M33.8006 22C34.2573 24.2413 33.9318 26.5714 32.8785 28.6018C31.8251 30.6322 30.1075 32.24 28.0121 33.1573C25.9167 34.0746 23.5702 34.2458 21.3639 33.6424C19.1576 33.0389 17.2248 31.6974 15.8879 29.8414C14.551 27.9854 13.8907 25.7272 14.0173 23.4434C14.1438 21.1595 15.0495 18.9881 16.5833 17.2912C18.117 15.5942 20.1862 14.4744 22.4457 14.1184C24.7052 13.7625 27.0184 14.1918 28.9996 15.335" stroke="white" stroke-width="2" stroke-linecap="round" stroke-linejoin="round"/>
<path d="M21 23L24 26L34 16" stroke="white" stroke-width="2" stroke-linecap="round" stroke-linejoin="round"/>
</svg>
