<svg width="56" height="56" viewBox="0 0 56 56" fill="none" xmlns="http://www.w3.org/2000/svg">
<path d="M0 14C0 6.26801 6.26801 0 14 0H42C49.732 0 56 6.26801 56 14V42C56 49.732 49.732 56 42 56H14C6.26801 56 0 49.732 0 42V14Z" fill="#F3E8FF"/>
<path d="M24.5 36.1667V29.1667C24.5 28.5478 24.2542 27.9543 23.8166 27.5168C23.379 27.0792 22.7855 26.8333 22.1667 26.8333H19.8333C19.2145 26.8333 18.621 27.0792 18.1834 27.5168C17.7458 27.9543 17.5 28.5478 17.5 29.1667V36.1667C17.5 36.7855 17.7458 37.379 18.1834 37.8166C18.621 38.2542 19.2145 38.5 19.8333 38.5H22.1667C22.7855 38.5 23.379 38.2542 23.8166 37.8166C24.2542 37.379 24.5 36.7855 24.5 36.1667ZM24.5 36.1667V24.5C24.5 23.8812 24.7458 23.2877 25.1834 22.8501C25.621 22.4125 26.2145 22.1667 26.8333 22.1667H29.1667C29.7855 22.1667 30.379 22.4125 30.8166 22.8501C31.2542 23.2877 31.5 23.8812 31.5 24.5V36.1667M24.5 36.1667C24.5 36.7855 24.7458 37.379 25.1834 37.8166C25.621 38.2542 26.2145 38.5 26.8333 38.5H29.1667C29.7855 38.5 30.379 38.2542 30.8166 37.8166C31.2542 37.379 31.5 36.7855 31.5 36.1667M31.5 36.1667V19.8333C31.5 19.2145 31.7458 18.621 32.1834 18.1834C32.621 17.7458 33.2145 17.5 33.8333 17.5H36.1667C36.7855 17.5 37.379 17.7458 37.8166 18.1834C38.2542 18.621 38.5 19.2145 38.5 19.8333V36.1667C38.5 36.7855 38.2542 37.379 37.8166 37.8166C37.379 38.2542 36.7855 38.5 36.1667 38.5H33.8333C33.2145 38.5 32.621 38.2542 32.1834 37.8166C31.7458 37.379 31.5 36.7855 31.5 36.1667Z" stroke="#9810FA" stroke-width="2.33333" stroke-linecap="round" stroke-linejoin="round"/>
</svg>
