<svg width="12" height="12" viewBox="0 0 12 12" fill="none" xmlns="http://www.w3.org/2000/svg">
<path fill-rule="evenodd" clip-rule="evenodd" d="M5.99626 10.7934C7.26851 10.7934 8.48866 10.288 9.38828 9.38834C10.2879 8.48872 10.7933 7.26857 10.7933 5.99632C10.7933 4.72407 10.2879 3.50392 9.38828 2.6043C8.48866 1.70468 7.26851 1.19928 5.99626 1.19928C4.724 1.19928 3.50386 1.70468 2.60424 2.6043C1.70462 3.50392 1.19922 4.72407 1.19922 5.99632C1.19922 7.26857 1.70462 8.48872 2.60424 9.38834C3.50386 10.288 4.724 10.7934 5.99626 10.7934ZM6.59589 3.5978C6.59589 3.43877 6.53271 3.28625 6.42026 3.1738C6.30781 3.06134 6.15529 2.99817 5.99626 2.99817C5.83723 2.99817 5.68471 3.06134 5.57226 3.1738C5.4598 3.28625 5.39663 3.43877 5.39663 3.5978V5.99632C5.39666 6.15534 5.45986 6.30783 5.57232 6.42026L7.26807 8.11661C7.32379 8.17232 7.38993 8.21652 7.46272 8.24667C7.53551 8.27682 7.61352 8.29234 7.69231 8.29234C7.7711 8.29234 7.84912 8.27682 7.92191 8.24667C7.9947 8.21652 8.06084 8.17232 8.11655 8.11661C8.17226 8.0609 8.21646 7.99476 8.24661 7.92197C8.27676 7.84918 8.29228 7.77116 8.29228 7.69237C8.29228 7.61358 8.27676 7.53557 8.24661 7.46278C8.21646 7.38999 8.17226 7.32385 8.11655 7.26814L6.59589 5.74807V3.5978Z" fill="#EA580C"/>
</svg>
