<svg width="48" height="48" viewBox="0 0 48 48" fill="none" xmlns="http://www.w3.org/2000/svg">
<path d="M0 16C0 7.16344 7.16344 0 16 0H32C40.8366 0 48 7.16344 48 16V32C48 40.8366 40.8366 48 32 48H16C7.16344 48 0 40.8366 0 32V16Z" fill="#2B7FFF"/>
<g opacity="0.668448">
<path d="M11 24C11 22.3431 12.3431 21 14 21C15.6569 21 17 22.3431 17 24C17 25.6569 15.6569 27 14 27C12.3431 27 11 25.6569 11 24Z" fill="white"/>
</g>
<g opacity="0.543239">
<path d="M21 24C21 22.3431 22.3431 21 24 21C25.6569 21 27 22.3431 27 24C27 25.6569 25.6569 27 24 27C22.3431 27 21 25.6569 21 24Z" fill="white"/>
</g>
<g opacity="0.5">
<path d="M31 24C31 22.3431 32.3431 21 34 21C35.6569 21 37 22.3431 37 24C37 25.6569 35.6569 27 34 27C32.3431 27 31 25.6569 31 24Z" fill="white"/>
</g>
</svg>
