<svg width="56" height="56" viewBox="0 0 56 56" fill="none" xmlns="http://www.w3.org/2000/svg">
<path d="M0 14C0 6.26801 6.26801 0 14 0H42C49.732 0 56 6.26801 56 14V42C56 49.732 49.732 56 42 56H14C6.26801 56 0 49.732 0 42V14Z" fill="#DBEAFE"/>
<path d="M26.8333 36.1667C31.988 36.1667 36.1667 31.988 36.1667 26.8333C36.1667 21.6787 31.988 17.5 26.8333 17.5C21.6787 17.5 17.5 21.6787 17.5 26.8333C17.5 31.988 21.6787 36.1667 26.8333 36.1667Z" stroke="#155DFC" stroke-width="2.33333" stroke-linecap="round" stroke-linejoin="round"/>
<path d="M38.5 38.5001L33.4833 33.4834" stroke="#155DFC" stroke-width="2.33333" stroke-linecap="round" stroke-linejoin="round"/>
</svg>
