<svg width="12" height="12" viewBox="0 0 12 12" fill="none" xmlns="http://www.w3.org/2000/svg">
<path fill-rule="evenodd" clip-rule="evenodd" d="M4.95097 1.85827C5.40969 1.04277 6.58316 1.04277 7.04128 1.85827L10.3872 7.8066C10.8369 8.6065 10.2595 9.59349 9.34266 9.59349H2.65019C1.73276 9.59349 1.15531 8.6065 1.60504 7.8066L4.95097 1.85827ZM6.59576 7.7952C6.59576 7.95423 6.53258 8.10675 6.42013 8.2192C6.30768 8.33166 6.15516 8.39483 5.99613 8.39483C5.83709 8.39483 5.68458 8.33166 5.57212 8.2192C5.45967 8.10675 5.3965 7.95423 5.3965 7.7952C5.3965 7.63617 5.45967 7.48365 5.57212 7.3712C5.68458 7.25875 5.83709 7.19557 5.99613 7.19557C6.15516 7.19557 6.30768 7.25875 6.42013 7.3712C6.53258 7.48365 6.59576 7.63617 6.59576 7.7952ZM5.99613 2.99816C5.83709 2.99816 5.68458 3.06134 5.57212 3.17379C5.45967 3.28624 5.3965 3.43876 5.3965 3.59779V5.39668C5.3965 5.55571 5.45967 5.70823 5.57212 5.82068C5.68458 5.93314 5.83709 5.99631 5.99613 5.99631C6.15516 5.99631 6.30768 5.93314 6.42013 5.82068C6.53258 5.70823 6.59576 5.55571 6.59576 5.39668V3.59779C6.59576 3.43876 6.53258 3.28624 6.42013 3.17379C6.30768 3.06134 6.15516 2.99816 5.99613 2.99816Z" fill="#DC2626"/>
</svg>
